<svg xmlns="http://www.w3.org/2000/svg" version="1.1" xmlns:xlink="http://www.w3.org/1999/xlink" width="512" height="512" x="0" y="0" viewBox="0 0 512 512" style="enable-background:new 0 0 512 512" xml:space="preserve" class=""><g><path d="M420 482H92c-33.791 0-62-28.209-62-62v-44h12v44c0 27.248 22.753 50 50 50h328c27.253 0 50-22.747 50-50V92c0-27.259-22.742-50-50-50h-52V30h52c33.791 0 62 28.209 62 62v328c0 33.791-28.209 62-62 62zM42 368H30v-12h12zm0-20H30V92c0-33.791 28.209-62 62-62h268v12H92c-27.253 0-50 22.746-50 50z" fill="#6e7f87" opacity="1" data-original="#000000" class=""></path><path d="M184.688 395.709h-62.4a6 6 0 0 1-6-6V211.43a6 6 0 0 1 6-6h62.4a6 6 0 0 1 6 6v178.279a6 6 0 0 1-6 6zm-56.4-12h50.4V217.43h-50.4zM153.489 190.688a37.2 37.2 0 1 1 37.2-37.2 37.243 37.243 0 0 1-37.2 37.2zm0-62.4a25.2 25.2 0 1 0 25.2 25.194 25.225 25.225 0 0 0-25.2-25.191zM389.709 395.709h-53.483a6 6 0 0 1-6-6v-86.866c0-29.768-6.924-41.366-24.695-41.366-19.6 0-27.236 11.177-27.236 39.866v88.366a6 6 0 0 1-6 6h-51.951a6 6 0 0 1-6-6V211.43a6 6 0 0 1 6-6h49.706a6 6 0 0 1 6 6v8.343c11.071-9.25 27.466-14.343 47.2-14.343 28.479 0 47.847 8.089 59.211 24.728 11.738 17.187 13.243 41.936 13.243 61.576v97.975a6 6 0 0 1-5.995 6zm-47.483-12h41.483v-91.975c0-47.059-9.892-74.3-60.454-74.3-22.633 0-40.252 7.8-47.131 20.857a6 6 0 0 1-5.309 3.2h-.765a6 6 0 0 1-6-6V217.43h-37.706v166.279H266.3v-82.366c0-14.186 0-51.866 39.236-51.866 36.695 0 36.695 38.77 36.695 53.366z" fill="#6e7f87" opacity="1" data-original="#000000" class=""></path></g></svg>