<svg xmlns="http://www.w3.org/2000/svg" version="1.1" xmlns:xlink="http://www.w3.org/1999/xlink" width="512" height="512" x="0" y="0" viewBox="0 0 512 512" style="enable-background:new 0 0 512 512" xml:space="preserve" class=""><g><path fill="#506169" d="M268.786 91.832H112.834a7.61 7.61 0 1 1 0-15.222h155.952a7.611 7.611 0 1 1 0 15.222zM119.723 147.623H39.449a7.61 7.61 0 1 1 0-15.222h80.274c4.204 0 7.611 3.407 7.611 7.611s-3.407 7.611-7.611 7.611zM116.971 199.489h-31.71a7.61 7.61 0 1 1 0-15.222h31.711a7.611 7.611 0 1 1-.001 15.222zM85.261 237.05H7.611a7.61 7.61 0 1 1 0-15.222H85.26c4.204 0 7.611 3.407 7.611 7.611s-3.407 7.611-7.61 7.611zM278.935 435.391H112.834c-4.204 0-7.611-3.407-7.611-7.612s3.408-7.611 7.611-7.611h166.101c4.204 0 7.611 3.407 7.611 7.611s-3.407 7.612-7.611 7.612zM119.723 379.6H39.449a7.612 7.612 0 0 1 0-15.223h80.274c4.204 0 7.611 3.407 7.611 7.612s-3.407 7.611-7.611 7.611zM116.971 327.734h-31.71c-4.204 0-7.611-3.407-7.611-7.612s3.408-7.611 7.611-7.611h31.711a7.612 7.612 0 0 1-.001 15.223zM85.261 290.174H7.611a7.612 7.612 0 0 1 0-15.223H85.26c4.204 0 7.611 3.407 7.611 7.612s-3.407 7.611-7.61 7.611z" opacity="1" data-original="#78c2a4" class=""></path><circle cx="324.278" cy="256" r="187.721" fill="#6e7f87" opacity="1" data-original="#95d6a4" class=""></circle><path fill="#506169" d="M324.278 68.279c-4.752 0-9.461.18-14.124.527 97.078 7.222 173.597 88.27 173.597 187.194s-76.519 179.972-173.597 187.194c4.663.347 9.372.527 14.124.527C427.954 443.721 512 359.676 512 256S427.954 68.279 324.278 68.279z" opacity="1" data-original="#78c2a4" class=""></path><circle cx="324.278" cy="256" r="144.144" fill="#f4fbff" opacity="1" data-original="#f4fbff" class=""></circle><path fill="#daf1f4" d="M324.278 111.855c-4.386 0-8.722.207-13.008.591 73.512 6.577 131.136 68.331 131.136 143.554S384.782 392.976 311.27 399.553c4.286.383 8.622.59 13.008.59 79.609 0 144.144-64.535 144.144-144.144.001-79.608-64.535-144.144-144.144-144.144z" opacity="1" data-original="#daf1f4" class=""></path><path fill="#506169" d="M324.279 164.49a7.611 7.611 0 0 1-7.612-7.611V145.26c0-4.204 3.407-7.611 7.612-7.611s7.611 3.407 7.611 7.611v11.618a7.611 7.611 0 0 1-7.611 7.612zM394.368 193.521a7.613 7.613 0 0 1-5.383-12.994l8.215-8.215a7.613 7.613 0 0 1 10.765 10.765l-8.215 8.215a7.587 7.587 0 0 1-5.382 2.229zM435.018 263.612h-11.617c-4.204 0-7.612-3.407-7.612-7.612s3.407-7.611 7.612-7.611h11.617a7.611 7.611 0 1 1 0 15.223zM402.583 341.916a7.593 7.593 0 0 1-5.383-2.229l-8.215-8.215a7.613 7.613 0 0 1 10.765-10.765l8.215 8.215a7.613 7.613 0 0 1-5.382 12.994zM324.279 374.351a7.611 7.611 0 0 1-7.612-7.612v-11.617c0-4.204 3.407-7.611 7.612-7.611s7.611 3.407 7.611 7.611v11.617a7.61 7.61 0 0 1-7.611 7.612zM245.974 341.916a7.611 7.611 0 0 1-5.382-12.994l8.215-8.215a7.611 7.611 0 1 1 10.764 10.765l-8.215 8.215a7.587 7.587 0 0 1-5.382 2.229zM225.157 263.612h-11.618c-4.204 0-7.611-3.407-7.611-7.612s3.408-7.611 7.611-7.611h11.618a7.612 7.612 0 0 1 0 15.223zM254.189 193.521a7.587 7.587 0 0 1-5.382-2.229l-8.215-8.215a7.611 7.611 0 1 1 10.764-10.765l8.215 8.215a7.611 7.611 0 0 1-5.382 12.994z" opacity="1" data-original="#365e7d" class=""></path><path fill="#506169" d="M357.597 263.612h-33.318a7.611 7.611 0 0 1-7.612-7.612v-64.123c0-4.204 3.407-7.611 7.612-7.611s7.611 3.407 7.611 7.611v56.511h25.707a7.613 7.613 0 0 1 0 15.224z" opacity="1" data-original="#2b4d66" class=""></path></g></svg>